<?xml version="1.0" encoding="UTF-8"?>
<svg id="Layer_1" xmlns="http://www.w3.org/2000/svg" version="1.1" viewBox="0 0 815.91 249.79">
  <!-- Generator: Adobe Illustrator 29.5.1, SVG Export Plug-In . SVG Version: 2.1.0 Build 141)  -->
  <defs>
    <style>
      .st0 {
        fill: #f4ece1;
      }

      .st1 {
        fill: #db9eb1;
      }
    </style>
  </defs>
  <path class="st1" d="M47.57,123.17c-.03,14.82.33,29.64,1.08,44.32.38,7.2.83,8.72,13.14,9.08l.33,4.08c-17.15,0-34.29-.02-51.42-.03v-4.13c11.22-.33,11.71-.84,11.55-9.08-.5-28.98-.49-58.13.04-87.1.15-8.07-.67-8.75-11.59-9.26v-3.96h51.6c-.12,1.3-.23,2.6-.33,3.9-11.33.52-12.75,1.02-13.21,9.24-.67,12.44-1.05,24.99-1.16,37.56,12.57-.01,25.24-.02,38.01-.04.18-12.63.84-25.22,1.97-37.61.71-7.5-.13-8.66-10.89-9.16.13-1.3.26-2.6.4-3.89h50.74c-.19,1.28-.38,2.56-.56,3.85-11.04.52-12.13,1.84-12.95,9.15-3.12,28.7-3.19,58.79-.22,87.55.78,7.32,2.03,8.65,12.86,9,.18,1.35.37,2.69.56,4.03-16.9,0-33.78,0-50.66-.02-.14-1.35-.27-2.71-.4-4.07,11.43-.33,11.65-.98,10.92-9-1.28-14.64-1.89-29.54-1.84-44.43h-37.99l.02.02h0Z"/>
  <path class="st1" d="M203.49,163.04c.98,9.21,2.88,11,5.6,12.18,1.99.67,4.23.67,6.3.67.06.83.12,1.67.18,2.49-5.07,2.98-11.72,4.29-20.32,4.29s-12.85-4.78-14.91-10.01c-5.37,3.71-10.55,10.01-20.86,10.01-16.53.02-25.54-11.15-26.57-23.38-.81-9.29,2.62-16.43,15.63-19.9,11.16-2.78,24.28-6.62,28.2-10.83-.04-3.63-.02-7.25.05-10.88.21-9.82-3.22-14.33-9.25-14.32-5.41.02-10.72,3.47-14.66,20.28-.86,4.38-3.56,5.78-7.15,5.77-4.25,0-12-2.45-11.91-10.14.08-8.92,12.33-20.4,36.41-20.44,29.02-.08,31.32,14.22,31.35,24.45-.05,13.36.58,26.74,1.91,39.73v.03h0ZM176.81,133.49c-3.92,1.75-9.17,4.55-13.67,7.51-4.33,2.78-5.89,6.63-5.29,14.23.82,10.2,6.07,18.11,13.63,18.12,3.12,0,8.09-1.98,7.2-10.17-1.02-9.75-1.65-19.69-1.87-29.68h0Z"/>
  <path class="st1" d="M290.93,102.01c-12.59,20.3-31.36,55.53-39.7,73.58h14.85c16.8-.03,19.26-7.16,23.28-24h4.03c-.1,9.97.08,19.74.54,29.12-24.35,0-48.69,0-73.01-.02-.29-.38-.58-.77-.86-1.16,11.1-23.58,26.69-52.66,40.07-73.15-5.48,0-10.95,0-16.41.02-15.12.01-16.79,6.66-20.26,19.88h-4.17c-.03-8.51.21-17.02.72-25.43,23.36-.03,46.87-.06,70.47-.08.16.41.31.81.47,1.22h-.02v.02Z"/>
  <path class="st1" d="M328.64,138.68c.38,19.98,6.81,33.49,22.54,33.48,9.91-.03,17.37-2.39,23.6-15.64,1,.46,2.01.92,3.01,1.38-5.55,15.52-15.24,24.77-34.63,24.79-30.28.25-40.61-18.54-41.22-41.38-.65-22.96,10.4-42.7,40.38-42.64,32.28-.09,35.83,21.22,35.91,33.66.02,5.66-3.15,6.36-9.16,6.36h-40.43ZM347.29,133.92c3.36,0,4.94-.53,4.92-4.95-.07-12.95-1.57-25.79-10.89-25.76-9.68-.03-12.96,15.83-12.75,30.71h18.72Z"/>
  <path class="st0" d="M464.21,94.32c.35,13.2-12.73,15.73-27.55,22.96,8.19,9.73,24.11,26.44,37.23,37.49,2.05-3.63,4.35-10.27,4.44-16.62.11-7.4-1.46-13.97-4.19-22.1,2.8-4.07,11.35-8.11,16.47-7.58,4.12,3.16,5.63,8.81,5.82,14.12.61,11.71-11.33,28.26-19.3,34.59,9,9.17,19.54,18.98,24.82,21.42-.27,1.1-.54,2.19-.81,3.27-2.86-.05-5.73-.11-8.59-.16-13.08-.17-25.3-1.91-34.22-8.22-10,6.48-17.47,9.02-31.57,9.04-19.84-.05-37.49-9.96-37.8-31.39-.13-15.55,7.33-18.3,22.74-27.48-5.14-6.73-8.68-14.71-8.65-23.96.11-17.66,12.47-29.17,31.72-29.18,16.15.01,28.97,9.08,29.45,23.8h-.01ZM412.4,139.57c.06,21.03,15.13,33.76,28.93,33.75,5.55,0,11.64-.5,13.96-1.84-15.09-11.58-34.35-35.21-41.11-44.11-1.42,2.3-1.77,7.97-1.78,12.2ZM422.89,89.32c.07,8.58,4.17,17.19,11.11,25.14,4.4-3.5,11.48-8.54,11.21-22.38-.31-13.58-6.2-17.4-12.07-17.44-6.75.02-10.32,4.57-10.25,14.68h0Z"/>
  <path class="st1" d="M551.67,123.13c.06,15.12-.6,30.27-1.97,44.76-.69,7.09-.56,8.53,11.84,8.87-.17,1.33-.34,2.65-.52,3.96h-51.68c.13-1.31.25-2.62.37-3.94,11.42-.35,12.04-.78,12.72-8.87,2.28-28.51,2.22-59.69-.17-88.07-.69-7.88-1.68-8.47-12.75-8.99-.12-1.26-.24-2.51-.37-3.76h51.6c.18,1.25.35,2.51.51,3.77-11.33.51-12.59.94-11.76,8.99,1.22,12.24,1.93,24.98,2.12,37.79,13.38,0,26.71.01,40,.02-.23-12.79-1.05-25.5-2.48-37.76-.89-7.41-2.15-8.52-13.06-9.03-.18-1.27-.36-2.53-.54-3.78h50.74c.21,1.26.41,2.53.61,3.81-10.95.5-11.55,1.79-10.64,9.04,3.5,28.51,3.58,59.25.24,87.86-.88,7.28-.09,8.57,10.72,8.91-.19,1.34-.4,2.67-.61,3.99h-50.77c.19-1.31.37-2.64.55-3.97,11.58-.35,12.09-.97,13-8.91,1.6-14.51,2.37-29.63,2.31-44.71h-40.01v.02Z"/>
  <path class="st1" d="M691.93,180.68c.03-3.01.04-6.05,0-9.1-7.04,3.42-15.4,11.12-29.19,11.1-11.63-.06-21.74-4.78-19.82-23.81,1.27-13.76,1.76-27.86,1.47-41.87-.15-6.48-1.52-9.1-3.76-9.45-2.02-.29-4.04-.59-6.07-.88-.06-1.28-.13-2.56-.21-3.83,11.38-.79,22.72-1.59,34.01-2.37.12.12.24.23.36.35,1.16,18.22.99,36.8-.49,54.92-1.09,12.58,3.42,17.39,11.86,17.4,6.86,0,9.57-3.91,11.1-7.16,1.3-2.56,2-6.51,2.18-8.75,1.07-13.26,1.48-26.75,1.22-40.18-.14-6.63-1.65-9.24-3.86-9.41-1.94-.29-3.88-.59-5.82-.88-.06-1.33-.13-2.67-.21-4,11.19-.73,22.34-1.46,33.43-2.18.12.12.24.23.36.35,1.21,22.78.69,45.97-1.57,68.41-.67,6.47.75,7.12,9.79,7.46-.14,1.3-.29,2.59-.45,3.89-11.44,0-22.89,0-34.35.02l.02-.03h0Z"/>
  <path class="st1" d="M761.67,138.4c-.41,19.56,3.73,33.38,19.23,33.35,9.63-.02,17.22-2.61,23.38-15.88.93.46,1.87.91,2.8,1.37-5.38,15.51-15.76,25.47-35.29,25.45-30.65.16-36.18-19.22-35.49-41.65.71-22.59,9.16-42,37.65-41.88,30.56.1,33.74,20.92,33.78,32.96,0,5.5-2.91,6.2-8.45,6.21-12.43.02-24.98.05-37.61.07h0ZM779.2,133.71c3.12,0,4.6-.52,4.62-4.84.05-12.6-1.8-25.2-10.58-25.22-9.11-.04-11.28,15.53-11.5,30.08,5.84,0,11.66,0,17.46-.02Z"/>
</svg>