<?xml version="1.0" encoding="UTF-8"?>
<svg id="Layer_1" xmlns="http://www.w3.org/2000/svg" xmlns:xlink="http://www.w3.org/1999/xlink" version="1.1" viewBox="0 0 159.7 67">
  <!-- Generator: Adobe Illustrator 29.3.0, SVG Export Plug-In . SVG Version: 2.1.0 Build 146)  -->
  <defs>
    <style>
      .st0, .st1, .st2 {
        fill: none;
      }

      .st1 {
        stroke-linecap: round;
        stroke-linejoin: round;
        stroke-width: .3px;
      }

      .st1, .st3, .st2, .st4, .st5, .st6 {
        stroke: #602f2f;
      }

      .st3 {
        fill: #853729;
      }

      .st3, .st2, .st4, .st5, .st6 {
        stroke-miterlimit: 10;
      }

      .st3, .st2, .st4, .st6 {
        stroke-width: .3px;
      }

      .st7 {
        fill: #ee3648;
      }

      .st8 {
        fill: #fff2e7;
      }

      .st4 {
        fill: #ef3648;
      }

      .st5 {
        stroke-width: .8px;
      }

      .st5, .st9, .st6 {
        fill: #fde0c5;
      }

      .st10 {
        fill: #602f2f;
      }
    </style>
  </defs>
  <rect class="st7" width="159.7" height="67" rx="8.9" ry="8.9"/>
  <g>
    <g>
      <path class="st4" d="M95.5,35.6c.8-.7,1.3-1.8,1.2-3,0-.3-.1-1.5-.8-1.8-.5-.2-.8.3-1.9.6-1.4.4-2.2,0-2.4.5-.3.5.3,1.3.7,2,.2.3,1.6,2.3,2.7,1.9.2,0,.3-.1.5-.3Z"/>
      <path class="st4" d="M95.2,37.1c.3.1.8,0,.9-.4.1-.2,0-.5-.3-1.1-.1-.3-.2-.3-.3-.4-.3-.1-.7,0-.9.4,0,.2,0,.4.1.8.1.3.2.5.4.6Z"/>
      <path class="st4" d="M96.3,36.7c1,.1,2,.9,2.5,1.9.1.3.6,1.4.2,1.9-.3.4-.8.1-1.9.4-1.4.3-1.9,1.1-2.4.8-.5-.3-.4-1.3-.4-2.1,0-.3.2-2.7,1.4-3.1.2,0,.3,0,.6,0Z"/>
    </g>
    <path class="st3" d="M73.6,39.1c-.8.6-1.5,1-1.9,1.3-1.3.7-1.9.8-3.1,1.6-.5.3-1.5,1-1.5,1.4,0,.2.3.1,2,.1,1.1,0,1.5,0,2.3,0,.4,0,.5,0,.5,0,0,0-2.3.4-4.1,1.3-.3.1-.7.3-.7.5,0,.2.6.3.7.3.3,0,.8.2,1.3.3,1,.2,1.9.3,1.9.3,0,0-.4,0-1,.2-.3.1-.6.2-.7.4.6.3,1.4.6,2.5.6,3,0,5.2-2.6,5.5-3.1"/>
    <g>
      <path class="st4" d="M72.9,41.7c-1.2.1-2.5-.4-3.3-1.5-.2-.3-1.1-1.3-.7-2.1.3-.5.9-.4,2-.9,1.5-.8,1.8-1.7,2.4-1.5.6.2.8,1.3,1,2.2,0,.4.5,3.1-.7,3.7-.2,0-.3.1-.6.1Z"/>
      <path class="st4" d="M74.3,42.6c-.2.4-.7.6-1,.4-.3-.1-.4-.5-.6-1.2-.1-.3-.1-.4,0-.5.1-.3.7-.5,1.1-.3.3.1.4.4.5.8.2.4.2.6.1.9Z"/>
      <path class="st4" d="M73.1,43.3c-.7.9-1,2.3-.5,3.6.1.3.6,1.6,1.4,1.7.6,0,.8-.5,1.9-1.2,1.4-.9,2.4-.6,2.6-1.2.2-.6-.7-1.4-1.3-2-.3-.2-2.3-2.1-3.5-1.4-.2.1-.3.2-.4.4Z"/>
    </g>
    <ellipse class="st3" cx="83.3" cy="32.5" rx="12.3" ry="12" transform="translate(-2.4 7) rotate(-4.7)"/>
    <path class="st6" d="M98.3,39.9c-.2-2.1-1.5-3.8-3.5-5,0-.4,0-.9,0-1.3-.4-5.4-4.9-9.4-10-9-4.2.3-7.4,3.5-8.2,7.6-1.1.4-1.5,2.2-1.3,2.3,0,0,.2-.3.7-.6.2-.1.3-.1.4-.2-.8.6-.9,1.9-.9,2,0,0,0,0,0-.1.1-.2.4-.4.8-.6,0,0,0,0,0,0-.6.6-.7,1.8-.6,1.8,0,0,0,0,0-.1,0-.3.4-.6.6-.8.1.7.3,1.4.5,2-.6.8-1,1.6-1.2,2.4-1.2-.6-3.2-.4-4,.9-1,1.7.9,3.8,1.1,4,.3.3,1.1,1.2,2.4,1.2.2,0,1.2,0,1.7-.6,2.1,2.7,6.3,4.2,11,3.6,6.3-.7,10.9-5,10.4-9.5Z"/>
    <path class="st9" d="M75,36"/>
    <g>
      <path class="st3" d="M90.9,25.3c.6.7,1.8,1.9,1.4,3.3,0,.2-.2.8-.6.9-.6.2-.9-1.4-2.3-2.8-.4-.3-2.2-2.1-4-1.7-.7.2-1.4.6-1.7.3-.2-.2,0-.4-.4-.8-.2-.3-.4-.3-.4-.4,0-.3,2-1.2,4.1-1,2.2.3,3.6,1.7,4,2.1Z"/>
      <path class="st3" d="M76.7,29.4c-.2.9-.5,2.5.6,3.6.1.1.6.6,1,.5.6-.2,0-1.7.5-3.6,0-.4.7-2.6,2.5-3.5,1.2-.6,2.5-.6,2.5-1,0-.2-.3-.6-.5-.7,0,0-.2-.2-.5-.3-.6-.3-2.3,0-3.8,1.4-.5.4-1.9,1.7-2.3,3.8Z"/>
      <path class="st3" d="M90.6,26.5c.5.7,1.5,1.9,1.1,3.2,0,.1-.3.7-.6.8-.6.1-.7-1.4-2-2.8-.3-.3-1.9-2.1-3.6-1.8-.6.1-1.4.5-1.6.2-.1-.2,0-.4-.3-.7-.2-.3-.4-.3-.4-.4,0-.3,1.9-1,3.9-.6,2.1.4,3.3,1.8,3.6,2.2Z"/>
      <path class="st3" d="M89.7,27.4c.4.6,1.3,1.6.9,2.6,0,.1-.2.6-.5.7-.5,0-.6-1.2-1.6-2.3-.3-.3-1.6-1.8-3-1.5-.5,0-1.1.4-1.3.1-.1-.1,0-.3-.3-.6-.2-.2-.3-.3-.3-.3,0-.3,1.5-.8,3.2-.5,1.7.3,2.7,1.5,2.9,1.8Z"/>
      <path class="st3" d="M77.8,29.6c-.2.8-.5,2.3.5,3.2.1,0,.6.5.9.4.6-.2,0-1.5.4-3.3,0-.3.6-2.3,2.3-3.2,1-.6,2.3-.5,2.3-.9,0-.2-.3-.5-.4-.7,0,0-.2-.2-.4-.3-.5-.3-2.1,0-3.5,1.2-.5.4-1.7,1.6-2.1,3.5Z"/>
      <path class="st3" d="M79.5,30.1c-.1.7-.4,2,.5,2.8,0,0,.5.5.8.4.5-.1,0-1.3.4-2.9,0-.3.6-2,2-2.8.9-.5,2-.4,2-.8,0-.2-.3-.5-.4-.6,0,0-.2-.2-.4-.3-.5-.2-1.9,0-3.1,1.1-.4.4-1.5,1.4-1.8,3.1Z"/>
      <path class="st3" d="M89.1,28.7c.2.4.8,1.6.3,2-.2.2-.6.2-.9.1-.3,0-.4-.3-.5-.5,0,0-.5-.6-1.1-1.4-.5-.6-.8-1-1.1-1.1-.4-.2-.9-.2-1-.6,0-.2,0-.4,0-.4,0,0,0-.3,0-.5.3-.4,1.3-.1,1.5,0,.3,0,.8.2,1.3.6.2.2,1,.7,1.5,1.8Z"/>
      <path class="st3" d="M81.4,30.7c0,.5-.2,2,.5,2.3.3.1.7,0,1-.2.2-.2.3-.5.4-.7.3-1,.4-1.4.6-2,0-.3.2-.6.5-1,.5-.8,1.1-1.1,1.1-1.7,0-.2,0-.4,0-.4,0,0-.1-.3-.3-.5-.4-.3-1.5.4-1.6.5-.3.2-.7.6-1.1,1.1-.2.2-.8,1.2-.9,2.5Z"/>
    </g>
    <path class="st10" d="M85.4,37.8c-.2,1-1.4,1.4-2.2,1.7-.7.3-1.5.5-2.2.1-1-.6-.8-2.1-.8-2.3,0-.1.2-1.6,1.5-2.2.1,0,1.1-.5,2.2,0,.9.5,1.6,1.5,1.4,2.5Z"/>
    <path class="st8" d="M85.4,38c-.2,1-1.3,1.4-2.2,1.7-.7.3-1.5.5-2.2.1-.9-.6-.8-2.1-.8-2.3,0-.1.2-1.6,1.5-2.2.1,0,1.1-.5,2.2,0,.9.5,1.6,1.5,1.4,2.5Z"/>
    <path class="st10" d="M94.1,34.8c-.3,1-1.4,1.2-2.2,1.5-.7.2-1.5.4-2.1,0-.9-.6-.6-2.1-.6-2.2,0-.1.3-1.5,1.6-1.9.1,0,1.1-.4,2.1.2.8.5,1.4,1.6,1.2,2.5Z"/>
    <path class="st8" d="M94,35c-.3,1-1.4,1.2-2.2,1.5-.7.2-1.5.4-2,0-.8-.6-.6-2.1-.6-2.2,0-.1.3-1.5,1.6-1.9.1,0,1.1-.4,2,.2.8.5,1.4,1.6,1.1,2.5Z"/>
    <path class="st10" d="M83.8,38.4c0,.2-.1.7-.5,1.1-.5.5-1.4.8-2.1.5-.5-.3-.7-.7-.7-.9-.1-.3-.2-.6-.2-.9,0-.4,0-.9.2-1.5.1-.3.4-.9,1.1-1.1.6-.2,1.4.3,1.5.7,0,.5-.5.9-.4,1.1.1.2.7-.3,1,0,.3.2.2.8.1,1Z"/>
    <path class="st10" d="M92.4,35.1c0,.2-.1.6-.4,1-.5.5-1.3.8-2,.4-.4-.2-.6-.7-.7-.8-.1-.3-.1-.5-.2-.8,0-.4,0-.8.2-1.3.1-.3.4-.9,1-1,.6-.1,1.3.2,1.4.7,0,.4-.5.8-.3,1,.1.1.6-.3.9,0,.3.2.2.8.1,1Z"/>
    <g>
      <path class="st10" d="M81.2,36.4c0-.1-.3-.1-.6-.2-.5,0-.7-.3-.8-.2,0,0,.3.4.8.6.2,0,.4.2.6,0,0,0,0-.2,0-.2Z"/>
      <path class="st10" d="M80.9,37c0-.2-.3-.1-.7-.2-.6-.1-.9-.4-.9-.3,0,0,.4.5.9.7.2,0,.5.2.7,0,0,0,0-.2,0-.3Z"/>
      <path class="st10" d="M80.9,37.8c-.1-.2-.4,0-.9-.1-.7,0-1-.3-1.1-.2,0,0,.5.5,1.1.6.2,0,.6.2.8,0,0,0,.1-.2,0-.3Z"/>
    </g>
    <g>
      <path class="st10" d="M92.6,32.3c0-.1,0-.2.2-.4.2-.3.2-.5.3-.5,0,0,0,.4,0,.7,0,.1-.1.3-.3.3,0,0-.1,0-.1-.1Z"/>
      <path class="st10" d="M93,32.4c0-.1.1-.2.3-.5.2-.3.3-.6.3-.6,0,0,0,.4-.1.8,0,.1-.2.4-.3.4,0,0-.1,0-.2-.1Z"/>
      <path class="st10" d="M93.4,32.8c0-.1.2-.2.4-.5.3-.4.4-.6.4-.6,0,0,0,.5-.3.9,0,.1-.2.4-.4.4,0,0-.2,0-.2-.1Z"/>
    </g>
    <path class="st1" d="M87.7,39.7c0-.1.1-.3.2-.5.2-.3.2-.4.2-.4.1-.2.2-.3.4-.4.2,0,.3,0,.6,0,.2,0,.4,0,.5,0,.2,0,.4.1.5.2"/>
    <path class="st0" d="M85.8,43c0,0,2.2.1,4.8.1"/>
    <path class="st2" d="M95.1,40.6s-1.6,3.4-11.1,3.5"/>
    <g>
      <path class="st10" d="M84.1,41.8c.6.6,1.2,1.7.8,2.3-.4.6-1.6.4-2.1.2-.3-.1-1.6-.5-1.6-1.6,0-.8.8-1.6,1.6-1.6.6,0,1.1.4,1.3.7Z"/>
      <path class="st7" d="M84,41.9c.5.5,1.1,1.5.7,2-.4.5-1.4.3-1.9.2-.3-.1-1.4-.5-1.4-1.4,0-.7.7-1.4,1.4-1.4.6,0,1,.4,1.2.6Z"/>
    </g>
    <g>
      <path class="st2" d="M73.3,43.6c-.4-1.1-.3-2.1.2-2.4.4-.2,1,0,1.4.3s.1,0,.2.1c.4.2.6.4.8.6"/>
      <path class="st2" d="M74.9,44.1c-.2-.2-.6-.8-.6-1.7,0-.5.1-.9.2-1.1"/>
    </g>
  </g>
  <g>
    <path class="st5" d="M6.8,21c.9-.3,2.4-.6,3.9-.6,2.1,0,3.5.6,4.6,2,.9,1.1,1.4,2.7,1.4,4.9s-1.1,5-2.8,6h0c1.6.7,3.4,2.9,3.4,7s-.6,4.2-1.4,5.5c-1.2,1.8-3,2.6-5.7,2.6s-2.6-.2-3.3-.3v-27.1ZM8.9,32.2h1.9c2.3,0,3.6-2,3.6-4.6s-1.5-4.5-3.6-4.5-1.6.1-1.9.2v8.9ZM8.9,45.4c.4.1,1,.2,1.8.2,2.2,0,4.3-1.3,4.3-5.3s-1.9-5.3-4.3-5.3h-1.8v10.5Z"/>
    <path class="st5" d="M34.3,34.1c0,9.5-3.5,14.5-7.7,14.5s-7.5-5.6-7.5-14,3.3-14.4,7.7-14.4,7.5,5.8,7.5,13.9ZM21.4,34.5c0,5.9,1.9,11.1,5.3,11.1s5.3-5.2,5.3-11.4-1.7-11.2-5.3-11.2-5.3,5.4-5.3,11.5Z"/>
    <path class="st5" d="M37.1,21c.9-.3,2.4-.6,3.9-.6,2.1,0,3.5.6,4.6,2,.9,1.1,1.4,2.7,1.4,4.9s-1.1,5-2.8,6h0c1.6.7,3.4,2.9,3.4,7s-.6,4.2-1.4,5.5c-1.2,1.8-3,2.6-5.7,2.6s-2.6-.2-3.3-.3v-27.1ZM39.3,32.2h1.9c2.3,0,3.6-2,3.6-4.6s-1.5-4.5-3.6-4.5-1.6.1-1.9.2v8.9ZM39.3,45.4c.4.1,1,.2,1.8.2,2.2,0,4.3-1.3,4.3-5.3s-1.9-5.3-4.3-5.3h-1.8v10.5Z"/>
    <path class="st5" d="M53.2,39.4l-1.7,8.7h-2.2l5.6-27.5h2.6l5.7,27.5h-2.3l-1.8-8.7h-5.9ZM58.6,36.7l-1.6-7.9c-.4-1.8-.6-3.4-.9-5h0c-.2,1.6-.5,3.3-.8,5l-1.6,8h5Z"/>
  </g>
  <g>
    <path class="st5" d="M115.3,46.4c-.8.7-2.4,1.3-4.4,1.3-4.7,0-8.2-4.9-8.2-13.9s3.5-14.4,8.7-14.4,3.4.7,3.9,1.2l-.5,2.9c-.8-.7-2-1.1-3.4-1.1-3.9,0-6.5,4.1-6.5,11.3s2.3,11.1,6.4,11.1,2.6-.4,3.5-1.1l.4,2.8Z"/>
    <path class="st5" d="M120.8,38.7l-1.7,8.7h-2.2l5.6-27.5h2.6l5.7,27.5h-2.3l-1.8-8.7h-5.9ZM126.2,35.9l-1.6-7.9c-.4-1.8-.6-3.4-.9-5h0c-.2,1.6-.5,3.3-.8,5l-1.6,8h5Z"/>
    <path class="st5" d="M133.2,19.8h9v3h-6.8v9.1h6.3v2.9h-6.3v12.4h-2.1v-27.5Z"/>
    <path class="st5" d="M153.8,34.4h-6.5v9.9h7.2v3h-9.3v-27.5h9v3h-6.8v8.7h6.5v2.9Z"/>
  </g>
</svg>